<svg width="38" height="78" viewBox="0 0 38 78" fill="none" xmlns="http://www.w3.org/2000/svg">
<path d="M31.6113 42.3633C31.6113 48.2617 30.3906 52.7734 27.9492 55.8984C25.5078 59.0234 21.9336 60.5859 17.2266 60.5859C12.5781 60.5859 9.02344 59.0527 6.5625 55.9863C4.10156 52.9199 2.8418 48.5254 2.7832 42.8027V34.9512C2.7832 28.9941 4.01367 24.4727 6.47461 21.3867C8.95508 18.3008 12.5195 16.7578 17.168 16.7578C21.8164 16.7578 25.3711 18.291 27.832 21.3574C30.293 24.4043 31.5527 28.7891 31.6113 34.5117V42.3633ZM23.1445 33.75C23.1445 30.2148 22.6562 27.6465 21.6797 26.0449C20.7227 24.4238 19.2188 23.6133 17.168 23.6133C15.1758 23.6133 13.7012 24.3848 12.7441 25.9277C11.8066 27.4512 11.3086 29.8438 11.25 33.1055V43.4766C11.25 46.9531 11.7188 49.541 12.6562 51.2402C13.6133 52.9199 15.1367 53.7598 17.2266 53.7598C19.2969 53.7598 20.791 52.9492 21.709 51.3281C22.627 49.707 23.1055 47.2266 23.1445 43.8867V33.75Z" fill="#F0A446"/>
</svg>
